<?xml version="1.0" encoding="UTF-8"?>
<svg width="176.09mm" height="202.65mm" version="1.1" viewBox="0 0 176.09 202.65" xmlns="http://www.w3.org/2000/svg">
 <g transform="translate(-17.032 -44.483)">
  <path transform="rotate(90 105.08 145.81)" d="m155.73 232.74-100.61 0.3959-50.649-86.935 49.963-87.33 100.61-0.3959 50.649 86.935z" fill-rule="evenodd" opacity=".795" stroke="#000400" stroke-linecap="round" stroke-linejoin="round" stroke-width="1.429" style="paint-order:fill markers stroke"/>
  <path transform="matrix(1.0197 0 0 .99001 20.939 17.869)" d="m-98.452 86.467h-125.13l24.39-76.351h76.351z" fill="#1e1e1e" fill-rule="evenodd" opacity=".795" stroke="#000400" stroke-linecap="round" stroke-linejoin="round" stroke-width="1.429" style="paint-order:fill markers stroke"/>
  <g fill="#fff" fill-rule="evenodd">
   <path transform="matrix(2.1977 -.076745 .04653 1.3324 -133.3 -66.387)" d="m103.93 221.4-33.64-34.396 34.396-33.64 33.64 34.396z" opacity=".265" style="paint-order:fill markers stroke"/>
   <path d="m104.68 54.647v145.64l-75.492-43.9v-57.844z" opacity=".105" style="paint-order:fill markers stroke"/>
   <path d="m104.68 54.647v145.64l75.492-43.9v-57.844z" opacity=".205" style="paint-order:fill markers stroke"/>
  </g>
  <text x="45.73497" y="136.89557" fill="#000000" font-family="sans-serif" font-size="10.583px" letter-spacing="0px" stroke-width=".26458px" word-spacing="0px" style="line-height:57.70000219%" xml:space="preserve"><tspan x="45.73497" y="136.89557" stroke-width=".26458px"><tspan x="45.73497" y="136.89557" fill="#ffffff" font-family="'Newtext Rg BT'" font-size="77.611px" stroke="#ffffff" stroke-width=".26458px">B</tspan></tspan></text>
  <text x="111.43014" y="158.32384" fill="#000000" font-family="sans-serif" font-size="10.583px" letter-spacing="0px" stroke-width=".26458px" word-spacing="0px" style="line-height:57.70000219%" xml:space="preserve"><tspan x="111.43014" y="158.32384" stroke-width=".26458px"><tspan x="111.43014" y="158.32384" fill="#ffffff" font-family="'Newtext Rg BT'" font-size="77.611px" stroke="#ffffff" stroke-width=".26458px">A</tspan></tspan></text>
 </g>
</svg>
